<?xml version="1.0" standalone="no"?>
<!DOCTYPE svg PUBLIC "-//W3C//DTD SVG 20010904//EN"
 "http://www.w3.org/TR/2001/REC-SVG-20010904/DTD/svg10.dtd">
<svg version="1.0" xmlns="http://www.w3.org/2000/svg"
 width="1440.000000pt" height="960.000000pt" viewBox="0 0 1440.000000 960.000000"
 preserveAspectRatio="xMidYMid meet">

<g transform="translate(0.000000,960.000000) scale(0.100000,-0.100000)"
fill="#000000" stroke="none">
<path d="M120 9568 c0 -18 -7 -62 -16 -98 -8 -36 -22 -99 -30 -140 -7 -41 -26
-133 -41 -205 l-27 -130 -3 -734 c-2 -490 0 -738 7 -745 5 -5 10 -28 10 -50 0
-32 6 -45 28 -64 22 -19 23 -23 7 -19 -11 3 -28 8 -38 12 -15 6 -17 -1 -17
-84 0 -81 2 -91 18 -91 22 0 52 -33 71 -75 25 -56 28 -60 50 -63 38 -6 39 26
4 131 -3 9 -1 17 5 17 14 0 74 -125 70 -147 -2 -12 -11 -17 -25 -15 -34 5 -38
-18 -4 -24 36 -7 41 -32 12 -58 -16 -14 -20 -15 -30 -2 -7 8 -11 20 -10 28 4
29 -3 38 -37 53 -51 21 -67 19 -98 -11 -25 -26 -26 -29 -26 -161 l0 -134 37
-37 c21 -21 46 -41 55 -45 26 -9 24 -41 -2 -34 -13 3 -20 0 -20 -9 0 -9 12
-14 38 -14 27 0 33 -3 22 -10 -8 -5 -10 -10 -4 -10 6 0 13 3 16 6 4 3 32 7 64
9 55 3 77 16 68 40 -3 6 -1 22 4 35 10 28 7 34 32 -63 10 -35 18 -49 35 -53
28 -7 38 -55 18 -84 -8 -11 -13 -32 -11 -47 3 -24 0 -28 -21 -25 -13 1 -30 -3
-37 -9 -11 -9 -18 -8 -28 0 -10 9 -20 9 -33 3 -12 -7 -25 -7 -36 -1 -13 8 -17
6 -17 -5 0 -10 -23 -17 -90 -27 l-90 -12 0 -117 c0 -111 1 -118 19 -113 10 3
25 22 34 43 34 87 149 128 209 75 35 -30 35 -45 2 -45 -15 0 -45 -14 -68 -33
-23 -18 -52 -40 -66 -49 -14 -9 -36 -26 -50 -38 -14 -12 -37 -28 -52 -36 l-28
-15 1 -507 1 -507 36 202 c24 127 43 208 53 220 9 10 14 24 12 31 -3 6 0 12 5
12 5 0 12 -8 16 -17 10 -29 53 -101 71 -120 13 -13 16 -27 11 -62 -3 -25 -7
-75 -10 -111 -5 -65 -5 -65 5 -17 6 26 15 47 20 47 5 0 9 6 9 14 0 14 22 15
68 1 12 -4 22 -3 22 2 0 13 78 3 91 -13 6 -8 9 -14 6 -14 -3 0 -1 -17 4 -37 5
-25 3 -74 -7 -143 -18 -123 -117 -755 -139 -885 -33 -193 -68 -407 -90 -555
-38 -242 -44 -273 -55 -284 -7 -7 -10 -3 -10 11 0 20 -5 21 -60 20 l-60 -2 0
-1662 0 -1663 100 0 100 0 0 43 c1 40 7 76 29 162 5 22 12 67 15 100 3 33 11
96 17 140 6 44 13 122 15 173 3 57 11 108 21 130 9 20 18 51 20 67 11 93 24
243 27 330 2 55 11 119 20 142 24 68 44 162 50 242 6 74 19 106 38 95 6 -4 31
-6 57 -5 75 1 84 -4 76 -49 -5 -32 -3 -42 14 -56 43 -37 -2 -139 -57 -130 -19
3 -22 -1 -21 -28 1 -17 3 -23 6 -13 3 12 15 17 41 17 26 0 41 6 50 20 16 26
32 26 32 -1 0 -12 -8 -23 -20 -26 -14 -4 -17 -9 -11 -22 5 -9 3 -48 -4 -94
-10 -63 -10 -75 1 -66 7 6 21 30 30 55 9 24 19 44 22 44 8 0 32 -33 42 -57 16
-40 33 -27 27 19 -6 46 5 78 28 78 15 0 18 -8 34 -90 5 -25 13 -56 17 -69 5
-17 4 -22 -4 -17 -8 5 -12 -3 -12 -23 0 -31 17 -52 24 -29 2 7 9 30 16 51 9
29 9 42 1 50 -6 6 -11 17 -11 24 0 18 41 73 53 73 6 0 8 -41 5 -105 -5 -81
-10 -113 -27 -140 -17 -29 -18 -35 -5 -35 10 0 14 -8 12 -23 -2 -17 -10 -22
-33 -22 -23 0 -31 -5 -33 -22 -3 -18 2 -23 17 -23 13 0 21 -7 22 -17 1 -10 6
-1 13 21 7 21 20 44 29 51 9 7 17 21 17 32 0 11 3 23 6 26 12 11 44 -13 44
-33 0 -11 4 -20 9 -20 13 0 24 34 12 38 -14 5 -3 91 16 120 7 12 18 20 23 17
13 -8 13 -155 0 -155 -15 0 -12 -19 4 -36 20 -19 23 -18 30 11 7 26 20 32 31
15 4 -6 11 -8 16 -5 5 4 12 -1 15 -9 5 -13 56 -46 71 -46 2 0 1 21 -3 46 -6
42 -4 49 16 64 22 17 24 25 25 143 1 69 -2 124 -7 121 -4 -3 -8 2 -8 11 0 8
12 21 26 27 19 9 24 17 20 32 -19 76 -19 75 8 87 14 7 26 19 26 27 0 7 9 16
19 19 27 7 29 15 36 139 5 96 16 168 32 227 3 13 -5 21 -31 32 -36 15 -39 30
-13 63 7 9 6 11 -4 7 -8 -2 -25 4 -39 15 -20 16 -22 20 -7 20 9 0 17 5 17 10
0 6 -6 10 -13 10 -8 0 -21 8 -29 18 -21 24 -10 115 14 120 10 2 18 -1 18 -7 0
-6 14 -11 30 -11 17 0 30 5 30 10 0 6 -4 10 -10 10 -5 0 -10 6 -10 14 0 8 -16
28 -35 44 -19 17 -41 47 -49 66 -8 20 -22 36 -30 36 -8 0 -25 13 -39 30 -22
25 -27 27 -37 14 -11 -13 -15 -12 -32 3 -12 11 -15 20 -9 26 7 7 3 14 -11 21
-13 7 -25 25 -29 45 -4 18 -12 38 -19 44 -10 9 -12 8 -7 -6 9 -23 -18 -34 -39
-16 -14 11 -18 10 -30 -6 -13 -18 -14 -18 -37 3 -13 12 -30 22 -39 22 -8 0
-34 20 -56 44 -48 52 -95 66 -100 29 -4 -29 -42 -31 -59 -4 -8 13 -19 18 -32
14 -22 -6 -46 13 -50 37 -11 81 -10 128 4 205 9 50 20 122 25 160 4 39 13 102
19 140 7 39 17 97 22 130 6 33 14 94 18 135 8 73 54 391 107 735 14 94 29 197
34 230 15 115 60 420 70 475 5 30 17 107 26 170 9 63 20 135 23 160 4 25 10
51 14 58 10 15 203 17 212 2 4 -6 14 -9 23 -6 10 3 46 8 82 11 36 4 67 10 70
14 3 4 14 8 25 8 11 1 33 6 49 12 23 9 26 14 16 26 -6 8 -9 19 -5 25 11 18 25
11 25 -15 0 -21 4 -24 34 -23 24 1 33 5 29 15 -4 10 -9 11 -19 2 -27 -22 -24
-2 3 27 15 16 26 40 26 56 0 15 4 25 8 23 4 -3 5 4 2 15 -3 13 0 20 8 21 10 0
9 2 -2 7 -9 4 -37 26 -64 49 l-48 43 22 86 c20 83 34 114 51 114 5 0 23 -12
41 -27 l32 -27 -7 -77 c-3 -43 -3 -80 1 -82 5 -3 9 18 10 45 1 28 7 56 12 61
12 12 14 5 11 -61 -2 -47 18 -64 51 -44 15 10 21 6 39 -26 12 -20 26 -44 31
-52 5 -8 12 -23 16 -33 4 -13 14 -17 32 -15 24 3 26 6 27 58 1 53 2 56 35 72
46 22 109 92 109 121 0 13 -6 31 -13 41 -11 16 -17 17 -36 7 -12 -7 -39 -10
-59 -7 -20 3 -40 5 -44 6 -5 0 -9 10 -9 23 -1 20 -2 20 -6 2 -7 -29 -21 -35
-80 -35 -46 0 -53 -3 -53 -20 0 -21 -16 -26 -39 -11 -8 5 -12 18 -8 30 3 12 1
24 -4 27 -5 3 -9 23 -9 46 0 40 1 40 32 36 l32 -5 -30 23 c-16 13 -31 24 -34
24 -3 0 -5 24 -5 53 0 46 2 52 20 49 11 -1 40 -5 65 -8 53 -7 135 24 143 55 6
25 53 55 73 47 8 -3 28 -35 45 -71 40 -89 39 -122 -5 -106 -18 7 -21 5 -22
-19 -1 -22 5 -28 30 -36 30 -9 30 -10 27 -66 -2 -49 0 -58 15 -58 15 0 16 8
10 64 -7 72 -9 69 69 81 79 12 135 27 135 36 0 5 14 9 30 9 20 0 30 5 30 15 0
8 8 15 17 15 12 0 14 3 7 10 -7 7 -34 -1 -85 -23 -89 -41 -143 -52 -160 -31
-6 8 -13 32 -14 55 -5 64 -44 132 -83 143 -40 11 -41 28 -3 55 31 22 75 27
114 12 21 -8 26 -6 30 10 5 20 6 20 44 1 65 -34 202 -84 212 -78 5 4 12 0 14
-6 3 -7 6 11 6 39 1 29 -6 71 -15 93 -10 24 -13 45 -8 50 8 7 82 0 143 -15 22
-6 23 -9 17 -63 -4 -32 -15 -69 -26 -84 -11 -15 -20 -34 -20 -43 0 -8 -6 -15
-14 -15 -7 0 -19 -6 -25 -14 -10 -12 -8 -17 8 -26 18 -9 28 -6 64 18 23 17 51
39 61 51 11 11 27 21 38 21 13 0 18 7 18 25 0 14 -4 25 -10 25 -5 0 -10 5 -10
10 0 14 27 12 33 -2 3 -7 6 1 6 17 1 38 -11 57 -30 50 -8 -3 -25 5 -37 18 -18
19 -106 67 -272 147 -11 6 -14 21 -12 56 l2 49 -28 -34 c-25 -31 -32 -33 -65
-27 -26 5 -50 21 -84 57 -65 68 -69 78 -45 121 11 20 35 63 52 96 17 33 37 65
43 69 14 11 253 66 391 91 l39 7 -49 31 c-75 49 -148 83 -210 99 -31 8 -62 19
-69 25 -7 6 -15 36 -17 68 -2 31 -18 92 -34 135 l-29 78 -85 -7 c-147 -11
-237 -74 -302 -209 l-34 -70 -44 -1 c-63 -1 -70 -2 -70 -17 0 -7 -21 -23 -46
-36 -41 -19 -51 -21 -76 -10 -24 10 -28 16 -24 36 5 16 2 23 -9 23 -8 0 -15 7
-15 16 0 8 4 13 8 10 5 -3 22 -1 38 4 26 7 23 8 -22 9 -33 1 -56 6 -64 16 -17
21 -33 19 -25 -4 4 -14 0 -20 -17 -25 -36 -9 -39 -8 -32 20 5 18 1 31 -15 48
-20 21 -20 24 -6 30 9 3 28 6 41 6 37 0 29 17 -26 51 -27 17 -50 34 -51 37 -6
43 -4 112 6 182 54 356 220 1396 266 1660 18 103 24 123 36 127 12 4 254 -230
1000 -972 222 -220 504 -499 627 -620 123 -121 540 -534 926 -917 l702 -698
61 1 c34 0 82 4 107 7 l45 7 6 55 c5 52 4 57 -30 97 -22 26 -43 40 -54 38 -9
-2 -14 1 -11 7 3 5 -3 12 -13 14 -11 3 -24 19 -31 36 -6 18 -14 29 -18 25 -3
-3 -17 7 -31 23 -13 16 -33 32 -44 35 -11 4 -18 13 -17 20 4 20 -123 165 -144
165 -10 0 -18 4 -18 8 0 4 -26 35 -59 68 -32 34 -64 70 -70 82 -6 12 -21 22
-31 22 -13 0 -20 7 -20 19 0 18 -27 49 -39 43 -3 -1 -7 6 -9 17 -2 12 -14 22
-33 26 -20 5 -29 13 -29 26 0 10 -13 25 -30 34 -16 9 -30 20 -30 24 0 5 -14
22 -30 38 -17 15 -30 34 -30 40 0 7 -6 13 -14 13 -8 0 -23 10 -33 23 -10 13
-24 22 -32 19 -10 -3 -12 0 -8 12 4 10 1 16 -7 16 -8 0 -21 11 -30 25 -9 14
-23 25 -32 25 -8 0 -12 5 -9 11 4 6 -3 13 -15 16 -13 4 -19 11 -15 20 3 10 1
13 -9 10 -19 -7 -32 9 -41 51 -3 18 -11 30 -15 27 -5 -3 -7 -13 -4 -23 4 -12
0 -11 -15 6 -11 13 -17 30 -14 37 5 14 -6 19 -34 16 -7 -1 -9 7 -6 19 3 11 0
20 -5 20 -6 0 -46 34 -88 75 -42 41 -73 75 -69 75 4 0 -30 36 -75 80 -45 44
-86 80 -92 80 -5 0 -6 5 -3 10 3 6 0 10 -9 10 -8 0 -16 4 -18 8 -5 15 -81 103
-133 156 -28 28 -70 76 -94 106 -23 30 -56 65 -72 78 -16 13 -29 31 -29 40 0
14 -2 15 -10 2 -7 -12 -10 -11 -16 5 -7 20 -64 91 -64 80 0 -3 -18 13 -40 36
-22 23 -40 45 -40 47 0 7 -15 23 -127 138 -54 55 -134 139 -177 187 -43 47
-83 84 -88 81 -7 -5 -12 13 -11 44 1 6 -3 12 -8 12 -5 0 -9 -5 -9 -11 0 -8 -5
-8 -15 1 -8 7 -13 15 -10 19 4 8 -42 61 -53 61 -5 0 -14 16 -21 36 -7 19 -23
40 -37 46 -13 6 -24 14 -24 18 0 4 -11 19 -25 34 -14 15 -25 25 -25 23 0 -11
-77 72 -90 97 -8 16 -23 31 -32 34 -13 3 -16 11 -11 33 7 34 -9 39 -25 7 -8
-18 -11 -19 -11 -5 -1 9 -7 17 -13 17 -7 0 -5 5 5 11 20 12 23 39 3 39 -14 0
-66 61 -66 77 0 12 -61 69 -82 76 -10 4 -18 16 -18 27 0 11 -7 20 -15 20 -8 0
-17 11 -21 25 -3 14 -9 25 -14 25 -4 0 -15 15 -25 34 -11 19 -29 40 -42 47
-12 7 -25 20 -29 31 -3 10 -11 18 -19 18 -7 0 -18 12 -24 28 -12 30 -29 59
-48 80 -7 7 -13 18 -13 23 0 5 -332 9 -845 9 l-845 0 0 -32z m760 -432 c0 -8
-9 -61 -20 -117 -27 -146 -91 -502 -140 -779 -23 -129 -50 -280 -60 -335 -10
-55 -28 -158 -40 -230 -32 -194 -25 -181 -95 -177 -91 6 -92 7 -66 169 12 76
28 172 36 213 7 41 23 125 34 185 26 149 43 238 96 525 25 135 54 296 66 359
35 197 30 185 69 192 67 12 120 10 120 -5z m-396 -1822 c49 -22 56 -29 56 -54
0 -50 -9 -60 -52 -60 -22 0 -46 7 -54 15 -9 8 -24 15 -35 15 -16 0 -18 3 -9
19 5 11 10 36 10 55 0 44 9 45 84 10z m-72 -153 c-9 -6 -10 -14 -3 -34 11 -29
1 -43 -24 -33 -20 7 -19 41 1 72 12 18 20 22 28 14 8 -8 7 -13 -2 -19z m78 -1
c0 -5 -4 -10 -10 -10 -5 0 -10 5 -10 10 0 6 5 10 10 10 6 0 10 -4 10 -10z
m-17 -141 c9 -12 27 -22 40 -23 23 -1 34 -32 23 -63 -6 -14 -9 -13 -27 5 -11
12 -24 22 -29 22 -7 0 -77 43 -109 66 -1 2 0 8 4 14 11 18 77 4 98 -21z m-44
-49 c21 -10 41 -26 44 -33 3 -8 21 -17 41 -21 l36 -7 -21 -28 c-12 -16 -31
-33 -44 -39 -31 -14 -157 -26 -189 -18 -36 9 -34 36 2 36 17 0 41 11 60 29 31
27 32 29 17 57 -8 16 -15 32 -15 37 0 13 30 8 69 -13z m951 -31 c0 -5 -4 -9
-10 -9 -5 0 -10 7 -10 16 0 8 5 12 10 9 6 -3 10 -10 10 -16z m-610 2 c0 -5
-12 -14 -27 -19 -16 -5 -36 -13 -45 -17 -13 -5 -18 -2 -18 8 0 9 8 21 18 26
21 13 72 14 72 2z m180 -5 c0 -35 -14 -76 -26 -76 -14 0 -37 67 -28 82 9 14
54 9 54 -6z m715 -44 c6 -17 -18 -42 -41 -42 -19 0 -24 59 -5 63 23 5 39 -2
46 -21z m-1465 -12 c13 -9 13 -12 -2 -21 -10 -5 -18 -21 -18 -34 0 -19 -5 -25
-22 -25 -39 1 -83 50 -45 50 6 0 23 9 37 20 29 23 30 23 50 10z m618 -118 c2
-34 -1 -62 -5 -62 -4 0 -17 14 -28 30 -11 16 -26 30 -32 30 -20 0 -15 21 9 47
37 39 53 27 56 -45z m842 0 c0 -10 -12 -22 -29 -29 -24 -9 -29 -8 -24 3 3 8
11 14 19 14 8 0 14 7 14 15 0 8 5 15 10 15 6 0 10 -8 10 -18z m-360 -32 c0 -5
-4 -10 -10 -10 -5 0 -10 5 -10 10 0 6 5 10 10 10 6 0 10 -4 10 -10z m365 -21
c14 -21 -5 -59 -28 -59 -12 0 -32 -7 -44 -15 -29 -20 -38 -3 -12 21 12 11 25
29 30 42 9 23 43 30 54 11z m-350 -19 c3 -5 -1 -10 -9 -10 -9 0 -16 5 -16 10
0 6 4 10 9 10 6 0 13 -4 16 -10z m-855 -51 c0 -21 -4 -39 -10 -39 -5 0 -10 21
-10 46 0 27 4 43 10 39 6 -3 10 -24 10 -46z m1229 -60 c10 -44 11 -63 3 -71
-14 -14 -42 7 -42 32 0 9 -11 22 -25 28 -33 15 -32 37 3 55 43 23 47 20 61
-44z m-361 -34 c14 -30 15 -45 5 -45 -8 0 -33 47 -33 62 0 17 17 7 28 -17z
m27 -188 c-15 -36 -40 -63 -48 -50 -8 14 -18 133 -12 143 3 5 21 -6 40 -25 34
-33 34 -35 20 -68z m-882 -17 c52 -64 54 -71 30 -91 -15 -12 -16 -12 -10 5 5
12 1 24 -10 35 -28 25 -83 99 -83 110 0 20 25 -1 73 -59z m1503 29 c3 -6 2
-15 -3 -20 -13 -13 -43 -1 -43 17 0 16 36 19 46 3z m-1466 -39 c0 -5 -5 -10
-11 -10 -5 0 -7 5 -4 10 3 6 8 10 11 10 2 0 4 -4 4 -10z m1295 -182 c14 -6 25
-15 25 -19 0 -16 -99 -59 -133 -59 -19 0 -40 7 -48 16 -37 44 86 94 156 62z
m-1556 -132 c14 -17 -1 -62 -31 -87 -15 -14 -19 -27 -16 -54 2 -19 0 -35 -5
-35 -4 0 -6 -8 -3 -18 4 -11 -2 -22 -14 -30 -27 -16 -42 -7 -34 22 3 13 11 61
17 107 11 73 15 85 37 96 32 16 35 16 49 -1z m199 -49 c25 6 30 -14 10 -36
-11 -10 -9 -11 6 -5 13 5 17 4 12 -4 -3 -6 -2 -13 3 -16 4 -3 11 -24 15 -46 4
-27 11 -40 22 -40 13 0 14 -3 4 -15 -6 -8 -9 -23 -5 -34 3 -10 2 -22 -4 -25
-5 -3 -7 -24 -4 -46 7 -51 -15 -197 -36 -235 -9 -16 -28 -42 -43 -57 -16 -15
-28 -32 -28 -38 0 -7 -8 -9 -20 -5 -11 3 -27 2 -36 -3 -12 -7 -30 -4 -57 8
-22 10 -47 16 -55 12 -12 -4 -14 0 -8 24 4 16 9 43 11 59 15 114 25 168 33
178 12 14 -2 113 -18 132 -14 16 -5 35 16 35 8 0 14 3 15 8 3 28 11 67 14 71
3 2 11 -2 19 -8 12 -10 20 -9 38 4 l23 17 -28 -5 c-35 -6 -45 10 -18 29 12 8
21 22 21 30 0 22 42 35 60 18 9 -7 26 -11 38 -7z m1532 -113 c0 -2 -7 -4 -15
-4 -8 0 -15 4 -15 10 0 5 7 7 15 4 8 -4 15 -8 15 -10z m-1753 -56 c-3 -8 -6
-5 -6 6 -1 11 2 17 5 13 3 -3 4 -12 1 -19z m1328 -18 c10 -17 -14 -38 -35 -33
-30 8 -26 43 4 43 14 0 28 -5 31 -10z m-525 -3449 c0 -11 5 -23 10 -26 6 -3
10 -15 10 -25 0 -10 4 -21 9 -24 5 -3 8 9 7 26 -1 23 4 33 17 36 12 3 17 -3
17 -22 0 -14 5 -28 10 -31 6 -3 10 -24 10 -46 0 -22 4 -38 8 -35 5 3 5 27 1
53 -12 76 -12 79 11 58 11 -10 20 -25 20 -34 0 -9 6 -25 14 -36 25 -37 38 -96
37 -171 0 -41 -5 -82 -9 -91 -8 -14 -12 -13 -32 7 -13 13 -20 29 -17 41 3 10
-2 24 -10 31 -11 9 -14 24 -9 55 3 25 2 43 -4 43 -6 0 -10 -9 -10 -19 0 -30
-11 -51 -26 -51 -9 0 -14 12 -14 36 0 58 -20 123 -36 117 -8 -3 -11 -9 -8 -14
3 -5 -4 -9 -15 -9 -12 0 -21 -5 -21 -12 0 -8 -6 -6 -16 4 -10 10 -14 24 -10
33 5 15 9 15 23 4 14 -12 15 -11 7 11 -15 45 -6 110 16 110 5 0 10 -9 10 -19z
m210 -162 c0 -6 -4 -7 -10 -4 -5 3 -10 11 -10 16 0 6 5 7 10 4 6 -3 10 -11 10
-16z m-190 -15 c0 -8 -5 -14 -11 -14 -5 0 -7 5 -4 10 3 6 1 10 -5 10 -6 0 -8
5 -5 10 8 13 25 3 25 -16z m-33 -81 c-4 -3 -13 0 -22 7 -12 10 -13 16 -3 27
11 13 14 12 22 -6 5 -12 6 -24 3 -28z m-59 -76 c-2 -30 -5 -34 -30 -34 -21 0
-28 5 -26 16 2 9 11 15 20 13 9 -1 19 6 23 18 10 30 16 24 13 -13z m62 14 c0
-28 -19 -73 -27 -68 -10 6 -9 59 1 75 11 18 26 14 26 -7z m31 -44 c-13 -13
-15 1 -4 30 7 17 8 17 11 -1 2 -10 -1 -23 -7 -29z m113 -13 c3 -9 6 -29 6 -45
0 -27 -2 -29 -20 -19 -14 8 -20 21 -20 45 0 37 22 49 34 19z m92 -40 c-5 -13
-10 -14 -18 -6 -6 6 -8 18 -4 28 5 13 10 14 18 6 6 -6 8 -18 4 -28z m-151 -4
c3 -5 -1 -10 -9 -10 -9 0 -16 5 -16 10 0 6 4 10 9 10 6 0 13 -4 16 -10z m-190
-189 c0 -22 -32 -38 -46 -24 -9 9 -9 16 1 28 15 19 45 16 45 -4z m260 9 c3 -5
-1 -10 -9 -10 -9 0 -16 5 -16 10 0 6 4 10 9 10 6 0 13 -4 16 -10z m-72 -56 c7
-8 -13 -54 -25 -54 -9 0 -11 22 -2 44 6 17 16 20 27 10z m-473 -136 c0 -30
-25 -15 -28 17 -3 25 -2 27 12 16 9 -8 16 -22 16 -33z m300 17 c0 -8 -4 -17
-10 -20 -6 -4 -10 5 -10 20 0 15 4 24 10 20 6 -3 10 -12 10 -20z m132 -7 c-15
-15 -26 -4 -18 18 5 13 9 15 18 6 9 -9 9 -15 0 -24z m-237 -8 c4 -6 7 -36 7
-67 1 -42 -3 -58 -16 -65 -11 -6 -16 -19 -14 -36 2 -21 -1 -27 -17 -27 -16 0
-21 8 -23 38 -3 31 0 38 21 46 28 11 42 40 27 55 -13 13 -13 66 -1 66 6 0 13
-5 16 -10z m285 -54 c0 -25 -15 -37 -37 -29 -9 4 -9 11 -1 29 14 31 38 31 38
0z m145 4 c9 -15 -14 -40 -31 -33 -22 8 -18 43 5 43 11 0 23 -5 26 -10z m-460
-30 c3 -6 -1 -13 -10 -17 -17 -6 -35 11 -35 35 0 9 5 10 19 2 11 -5 23 -15 26
-20z m-53 -32 c-6 -7 -16 -41 -23 -76 -10 -47 -17 -62 -29 -60 -19 4 -15 55 6
79 8 8 14 23 14 32 0 9 8 21 18 26 23 14 26 13 14 -1z m402 -26 c-2 -34 5 -39
24 -20 15 15 29 -16 15 -35 -11 -14 -10 -64 1 -90 6 -13 5 -16 -8 -11 -14 5
-14 3 0 -25 9 -17 12 -36 7 -43 -4 -7 -8 -26 -9 -43 -5 -83 -16 -161 -24 -169
-11 -11 -40 10 -40 29 0 7 -9 15 -20 18 -15 4 -20 14 -20 40 0 22 -6 37 -15
41 -16 6 -21 46 -6 46 12 0 26 39 22 62 -1 9 7 22 18 28 12 6 21 21 21 35 0
13 5 27 10 30 6 3 10 15 10 27 0 17 -3 18 -15 8 -18 -15 -45 -6 -45 15 0 9 10
34 23 56 27 48 53 48 51 1z m-236 -33 c-1 -13 -7 -23 -13 -22 -13 3 -18 30
-11 50 10 24 29 1 24 -28z m18 -116 c-10 -10 -19 5 -10 18 6 11 8 11 12 0 2
-7 1 -15 -2 -18z"/>
<path d="M450 7280 c-8 -5 -11 -12 -7 -16 4 -4 15 0 24 9 18 18 8 23 -17 7z"/>
<path d="M1125 1181 c-6 -11 9 -23 19 -14 9 9 7 23 -3 23 -6 0 -12 -4 -16 -9z"/>
<path d="M7420 8532 c0 -4 26 -8 58 -8 40 -1 50 1 32 7 -34 10 -90 11 -90 1z"/>
<path d="M7298 8484 c-2 -9 -18 -22 -37 -28 -20 -6 -37 -20 -42 -33 -7 -20 -5
-23 16 -23 18 0 25 -5 25 -20 0 -16 -7 -20 -35 -20 -20 0 -50 -8 -68 -17 -18
-9 -38 -16 -44 -15 -7 2 -13 -7 -13 -18 0 -16 -11 -26 -40 -37 -22 -9 -40 -19
-40 -23 0 -3 -13 -5 -30 -2 -25 4 -30 9 -30 32 0 19 -6 31 -18 34 -14 5 -17
14 -14 36 6 42 33 54 106 45 48 -5 58 -4 49 6 -7 7 -28 13 -48 14 -20 1 -38 5
-41 8 -8 7 53 25 113 33 30 4 54 12 57 20 12 30 -113 6 -183 -35 -29 -17 -58
-31 -65 -31 -7 0 -26 -10 -41 -21 l-27 -22 32 -20 c52 -33 36 -50 -56 -63 -55
-8 -97 -21 -128 -39 -43 -25 -59 -45 -36 -45 14 0 12 -38 -2 -42 -10 -4 -9
-14 0 -47 7 -23 10 -50 7 -61 -3 -11 1 -30 11 -44 27 -42 -5 -79 -36 -41 -19
23 -64 19 -75 -7 -8 -18 -22 -25 -65 -31 -30 -5 -66 -11 -80 -14 l-25 -5 35
-26 c100 -77 131 -149 72 -170 -16 -5 -50 -8 -75 -5 -39 5 -47 3 -47 -11 0
-36 -29 -12 -55 46 l-28 62 -45 -49 c-24 -28 -51 -65 -59 -84 -8 -18 -25 -51
-38 -72 -14 -22 -22 -46 -19 -56 5 -14 4 -15 -4 -4 -8 11 -12 9 -22 -9 -10
-18 -9 -24 1 -31 8 -5 13 -32 14 -74 l2 -67 -31 6 c-17 3 -40 8 -51 11 -15 4
-27 -5 -50 -38 -16 -23 -28 -50 -26 -59 1 -13 -5 -18 -22 -18 -13 0 -26 -3
-30 -6 -3 -3 14 -32 39 -64 47 -63 51 -70 32 -70 -7 0 -30 -5 -52 -11 l-38
-11 26 -27 c32 -34 22 -47 -41 -53 -34 -3 -43 0 -46 14 -3 10 -13 18 -22 18
-15 0 -15 -2 -1 -15 8 -9 13 -22 10 -30 -4 -10 0 -15 15 -15 24 0 29 -25 6
-34 -34 -13 -104 -72 -105 -88 0 -24 -39 -48 -77 -48 -44 0 -114 -22 -110 -35
2 -5 -2 -25 -10 -43 l-14 -34 55 7 c50 6 55 5 61 -14 6 -19 12 -21 49 -16 71
11 74 -7 21 -104 -29 -53 -45 -93 -45 -116 0 -20 -7 -47 -16 -61 -21 -31 -15
-37 19 -19 31 16 32 15 41 -52 4 -26 0 -59 -10 -88 -27 -82 -42 -205 -36 -320
2 -60 9 -119 15 -129 5 -11 11 -50 13 -88 2 -37 8 -76 14 -87 5 -11 10 -31 10
-44 0 -14 7 -41 15 -61 15 -36 35 -169 40 -273 1 -29 6 -74 10 -99 5 -38 3
-50 -13 -68 -20 -23 -30 -96 -12 -96 6 0 25 -13 42 -29 28 -26 31 -36 38 -112
4 -46 8 -74 9 -62 0 12 5 23 10 25 14 5 36 259 35 416 0 127 -2 145 -18 154
-15 8 -17 18 -11 58 5 33 2 67 -9 102 -8 30 -14 67 -13 83 2 24 -2 29 -16 27
-15 -3 -17 3 -11 40 3 24 7 48 9 55 2 6 0 26 -5 42 -6 22 -5 31 3 31 6 0 1 7
-11 16 -17 12 -20 19 -12 34 5 10 10 50 10 89 0 52 4 72 15 79 15 8 24 67 29
177 1 22 7 58 13 80 7 22 21 76 32 120 34 139 82 287 117 363 36 80 93 172
105 172 4 0 31 23 59 52 27 28 53 48 56 45 3 -3 43 14 89 39 46 24 96 44 112
44 15 1 39 7 53 15 14 8 41 14 61 15 19 0 40 5 46 11 6 6 29 13 50 15 103 10
182 28 228 51 17 9 66 17 114 19 63 3 87 9 96 21 9 13 29 15 100 14 48 -1 107
-9 132 -17 84 -29 221 -18 283 21 47 29 134 36 300 21 52 -4 120 -7 151 -6 95
2 249 -28 249 -49 0 -4 23 -14 50 -21 28 -7 50 -17 50 -21 0 -9 38 -20 84 -24
21 -2 53 -10 70 -18 17 -9 53 -25 81 -37 52 -23 205 -171 205 -198 0 -14 42
-95 76 -147 10 -15 21 -48 25 -74 4 -25 11 -59 17 -76 24 -70 36 -147 38 -260
1 -66 5 -133 8 -150 14 -82 50 -206 72 -253 9 -20 18 -52 19 -72 1 -19 3 -35
4 -35 2 0 4 -8 6 -17 2 -9 8 -32 14 -50 6 -19 10 -76 8 -128 -3 -60 1 -111 10
-140 7 -25 18 -88 24 -140 6 -52 17 -131 26 -175 16 -86 29 -177 39 -294 7
-80 -14 -320 -27 -300 -5 9 -10 3 -14 -17 -3 -16 -10 -45 -15 -64 -15 -61 -23
-189 -12 -203 5 -6 9 -27 7 -45 -2 -36 20 -56 36 -31 6 10 9 11 10 2 3 -28 4
-32 12 -39 13 -13 7 -43 -11 -56 -9 -7 -23 -26 -30 -42 -13 -28 -22 -30 -26
-4 -2 18 -16 38 -25 38 -4 0 -8 -36 -10 -80 l-2 -81 24 6 c14 4 28 2 31 -4 8
-12 27 -15 23 -3 -1 4 3 8 8 9 6 1 9 -5 7 -12 -2 -10 3 -13 15 -9 16 5 16 4
-1 -10 -11 -9 -14 -16 -8 -16 7 0 12 -6 12 -14 0 -13 -43 -31 -66 -28 -8 2 -9
-22 -6 -75 9 -140 6 -198 -12 -225 -11 -17 -13 -28 -7 -33 11 -6 31 33 31 61
0 27 43 199 52 209 6 6 11 6 16 -1 19 -28 73 -54 112 -54 37 0 41 2 38 22 -2
18 -16 27 -65 43 l-63 20 0 75 c0 41 4 90 10 109 5 19 12 68 15 110 3 42 10
117 16 166 5 50 14 135 19 190 13 140 23 197 42 224 16 22 15 25 -3 44 -17 19
-19 32 -14 141 3 67 9 134 13 151 l8 29 27 -54 c15 -30 27 -62 27 -71 0 -10
21 -73 46 -141 30 -82 47 -146 51 -192 10 -118 26 -48 31 138 4 160 1 192 -26
311 -10 43 -46 85 -71 85 -12 0 -33 -12 -46 -26 l-25 -27 0 56 c0 31 5 68 12
82 10 23 8 29 -20 58 -32 33 -32 34 -32 133 0 68 5 111 14 130 40 79 45 111
71 404 14 164 17 190 25 190 5 0 4 14 -2 30 -5 17 -8 40 -5 52 3 11 0 39 -8
62 -8 22 -14 64 -14 91 -1 88 -7 129 -29 175 -12 25 -22 60 -22 79 0 21 -10
46 -29 70 -20 25 -28 44 -24 61 3 20 -9 40 -64 100 -38 41 -88 102 -112 135
-62 85 -91 115 -128 130 -22 9 -33 21 -33 34 0 12 5 21 10 21 18 0 10 17 -12
27 -18 8 -26 6 -38 -8 -8 -10 -32 -19 -55 -21 -44 -3 -45 -1 -29 85 6 32 4 37
-12 37 -11 0 -25 -9 -32 -20 -14 -24 -32 -26 -32 -5 0 8 -4 15 -9 15 -5 0 -9
17 -10 38 -1 92 -13 152 -28 150 -10 -2 -20 11 -28 40 -15 51 -83 152 -132
199 -18 18 -36 46 -40 63 -5 27 -9 31 -29 26 -31 -8 -37 6 -22 53 12 37 28 55
28 31 0 -16 27 -12 33 5 4 9 -13 31 -47 60 -53 44 -54 45 -126 45 -71 0 -142
22 -176 54 -30 29 -84 65 -153 102 -66 35 -86 41 -141 42 -69 1 -74 4 -121 77
l-19 30 0 -27 c0 -33 -4 -34 -38 -7 -20 15 -35 19 -59 14 -26 -5 -35 -2 -45
15 -7 11 -20 20 -29 20 -9 0 -39 20 -65 45 -27 25 -56 45 -65 45 -9 0 -19 7
-23 15 -8 23 -133 21 -138 -1z m65 -21 c-7 -2 -19 -2 -25 0 -7 3 -2 5 12 5 14
0 19 -2 13 -5z m-518 -254 c-11 -5 -31 -16 -44 -24 -29 -16 -47 -10 -31 10 11
14 37 22 75 23 l20 1 -20 -10z m131 -49 c36 -36 44 -50 50 -80 4 -16 4 -30 2
-30 -15 0 -67 33 -72 46 -4 10 -11 12 -23 6 -10 -4 -33 -6 -52 -3 -27 5 -36
12 -42 34 -6 23 -4 28 14 32 12 2 31 6 42 8 42 9 62 6 81 -13z m1445 -167 c16
-10 29 -21 29 -26 0 -4 -4 -5 -10 -2 -6 3 -10 -5 -10 -19 0 -48 -24 -42 -53
13 -14 27 -15 36 -5 42 17 11 16 12 49 -8z m-1771 -62 c5 -11 10 -28 10 -38 0
-15 -4 -13 -26 9 -15 14 -23 31 -20 37 11 16 24 13 36 -8z m116 -32 c8 -16 14
-33 14 -39 0 -18 -28 -11 -35 10 -3 11 -10 20 -15 20 -10 0 -21 41 -14 52 8
12 32 -10 50 -43z m44 26 c0 -8 -2 -15 -4 -15 -2 0 -6 7 -10 15 -3 8 -1 15 4
15 6 0 10 -7 10 -15z m-232 -25 c2 -10 -6 -16 -23 -18 -27 -2 -28 -1 -19 23 8
19 38 16 42 -5z m1782 -25 c0 -19 -8 -19 -26 -1 -22 22 -18 39 6 26 11 -6 20
-17 20 -25z m-2040 -196 c0 -5 -9 -9 -20 -9 -11 0 -20 -5 -20 -10 0 -16 -51
-33 -64 -20 -14 14 2 28 50 45 39 13 54 12 54 -6z m58 -112 c10 -8 16 -7 22 2
6 11 9 11 16 0 14 -22 34 -83 29 -88 -9 -9 -53 22 -63 44 -12 27 -68 43 -85
26 -10 -10 -47 -16 -47 -7 0 2 -3 11 -6 19 -4 12 6 15 58 15 35 -1 69 -5 76
-11z m-148 -36 c0 -24 -18 -37 -32 -23 -8 8 -7 16 2 27 17 21 30 19 30 -4z
m347 -53 c14 -15 14 -18 2 -18 -9 0 -31 16 -50 36 l-34 37 33 -19 c18 -10 40
-27 49 -36z m-83 -29 c14 -11 31 -29 36 -40 17 -31 -16 -24 -51 10 -47 47 -36
70 15 30z m-414 -140 c0 -6 -4 -7 -10 -4 -5 3 -10 11 -10 16 0 6 5 7 10 4 6
-3 10 -11 10 -16z m188 -22 c33 -30 29 -57 -8 -57 -23 0 -35 8 -55 37 -14 21
-25 41 -25 45 0 14 65 -5 88 -25z m-546 -1297 c-2 -22 -8 -40 -13 -40 -5 0 -9
18 -9 40 0 26 5 40 13 40 9 0 11 -12 9 -40z m14 -83 c10 4 11 -2 3 -30 -5 -19
-8 -45 -7 -58 2 -15 -3 -24 -14 -27 -16 -3 -18 5 -18 64 0 50 3 65 11 57 6 -6
17 -9 25 -6z m88 -423 c3 -9 6 -23 6 -31 0 -13 -3 -13 -15 -3 -16 13 -21 50
-6 50 5 0 12 -7 15 -16z m23 -219 c9 -25 -4 -29 -17 -6 -7 15 -7 21 0 21 6 0
13 -7 17 -15z m43 -87 c0 -32 -3 -39 -10 -28 -13 20 -13 70 0 70 6 0 10 -19
10 -42z m3360 -797 c0 -46 -7 -52 -37 -36 -14 7 -19 16 -13 24 4 8 12 11 17 8
6 -4 8 4 5 18 -3 18 0 25 12 25 12 0 16 -10 16 -39z m-60 -525 c0 -3 -4 -8
-10 -11 -5 -3 -10 -1 -10 4 0 6 5 11 10 11 6 0 10 -2 10 -4z"/>
<path d="M6438 8060 c-37 -39 -47 -60 -30 -60 5 0 18 11 30 25 12 14 25 25 29
25 5 0 16 12 26 25 31 43 -10 31 -55 -15z"/>
<path d="M6380 7849 c0 -5 5 -7 10 -4 6 3 10 8 10 11 0 2 -4 4 -10 4 -5 0 -10
-5 -10 -11z"/>
<path d="M8802 7675 c0 -16 4 -43 8 -60 l8 -30 0 30 c0 17 -4 44 -8 60 l-8 30
0 -30z"/>
<path d="M180 6563 c-72 -5 -97 -13 -79 -24 7 -5 24 -9 37 -9 12 0 22 -4 22
-9 0 -5 9 -13 20 -16 25 -8 26 -22 3 -27 -10 -2 3 -4 29 -4 25 1 44 4 41 9 -2
4 -13 7 -24 7 -23 0 -24 9 -3 38 16 23 48 29 59 12 3 -5 10 -10 16 -10 5 0 9
5 9 10 0 6 -7 10 -15 10 -8 0 -15 5 -15 10 0 10 -8 10 -100 3z"/>
<path d="M270 6451 c0 -5 5 -13 10 -16 6 -3 10 -2 10 4 0 5 -4 13 -10 16 -5 3
-10 2 -10 -4z"/>
<path d="M5650 6228 c0 -49 9 -45 16 6 2 20 0 36 -6 36 -5 0 -10 -19 -10 -42z"/>
<path d="M14260 6113 c-252 -20 -575 -45 -660 -52 -58 -5 -175 -14 -260 -21
-85 -6 -175 -14 -199 -18 -43 -7 -46 -9 -62 -57 -15 -46 -20 -51 -65 -66 -35
-13 -50 -23 -55 -41 -6 -25 -54 -113 -97 -182 -13 -21 -34 -66 -47 -101 -13
-34 -39 -91 -58 -126 -19 -35 -38 -81 -41 -101 -4 -20 -22 -59 -41 -86 -35
-52 -95 -176 -95 -197 0 -7 -7 -26 -15 -41 -21 -42 -19 -63 10 -74 14 -5 28
-16 31 -24 3 -7 34 -27 70 -42 72 -32 75 -39 79 -138 1 -33 3 -64 4 -68 0 -5
13 -8 27 -8 14 0 24 -3 22 -7 -2 -5 -10 -21 -18 -36 -12 -25 -12 -30 1 -38 11
-7 11 -9 -3 -9 -25 0 -22 -16 10 -56 29 -36 56 -44 66 -19 3 8 9 15 14 15 15
0 0 -104 -16 -116 -10 -7 -13 -23 -9 -55 15 -125 29 -217 38 -247 6 -18 14
-63 19 -100 5 -49 8 -57 10 -32 2 19 2 45 1 57 -1 12 2 24 7 27 10 6 35 -112
52 -244 6 -47 18 -128 26 -180 17 -107 29 -187 44 -305 5 -44 16 -116 24 -160
8 -44 20 -123 26 -175 7 -52 14 -104 16 -115 2 -11 9 -60 15 -110 6 -49 12
-92 14 -95 2 -3 8 -50 14 -105 7 -55 16 -120 21 -145 10 -47 10 -53 35 -244 9
-65 18 -122 20 -126 2 -4 12 -68 20 -141 9 -74 20 -150 25 -169 5 -19 11 -71
15 -115 3 -44 11 -102 16 -130 5 -27 11 -77 14 -110 2 -33 10 -103 18 -155 8
-52 20 -147 27 -210 6 -63 16 -133 21 -155 10 -46 25 -164 35 -279 5 -60 4
-77 -5 -71 -7 4 -16 17 -21 30 -5 14 -17 23 -27 23 -25 -1 -73 19 -73 31 0 6
-18 23 -39 38 -22 15 -79 62 -128 103 -48 41 -115 95 -148 120 -72 54 -82 66
-91 105 -10 47 -64 156 -98 198 -36 45 -97 105 -146 146 -43 35 -211 121 -238
121 -39 0 -131 39 -195 83 -37 26 -89 53 -115 61 -26 8 -87 29 -137 46 -49 17
-115 35 -145 41 -30 6 -91 22 -135 36 -131 41 -222 63 -303 74 -246 32 -313
38 -457 44 -154 7 -281 28 -415 70 -25 7 -83 21 -130 30 -132 24 -365 80 -485
116 -16 4 -66 18 -110 30 -174 46 -167 43 -210 115 -38 66 -62 88 -171 154
-31 19 -72 45 -91 58 -19 12 -40 22 -46 22 -7 0 -17 4 -23 8 -12 10 -106 46
-164 62 -25 7 -57 17 -72 22 -55 20 -58 12 -58 -144 0 -163 14 -250 60 -392
31 -96 33 -104 27 -210 -8 -148 -29 -239 -64 -281 -63 -77 -72 -91 -62 -106 7
-11 9 -11 9 4 0 9 5 17 10 17 14 0 12 -16 -3 -32 -8 -7 -12 -19 -9 -26 2 -7
-4 -21 -14 -31 -16 -14 -27 -16 -64 -9 -59 11 -67 6 -63 -34 l3 -33 -13 27
-12 27 -45 -43 c-25 -23 -52 -52 -60 -64 -9 -14 -21 -20 -32 -16 -13 4 -16 1
-12 -10 4 -10 -1 -18 -11 -22 -13 -5 -14 -9 -3 -16 10 -7 10 -10 -3 -18 -9 -5
-20 -21 -23 -34 -4 -18 -11 -23 -25 -19 -15 4 -19 1 -15 -14 3 -11 -3 -26 -15
-37 -26 -23 -12 -47 22 -38 20 5 20 4 8 -11 -7 -9 -21 -17 -30 -18 -9 -1 -7
-4 7 -7 22 -7 28 -28 7 -26 -5 1 -21 3 -35 5 -20 3 -25 0 -23 -17 2 -14 -9
-30 -28 -45 -36 -27 -43 -29 -131 -31 -38 -1 -68 -3 -68 -5 0 -1 12 -9 28 -17
18 -10 21 -15 10 -16 -23 0 -48 27 -41 46 4 12 0 15 -23 12 -21 -2 -30 -9 -32
-25 -2 -12 -12 -25 -23 -28 -10 -4 -19 -15 -19 -26 0 -21 -25 -26 -33 -6 -3 7
-6 5 -6 -5 -1 -10 -8 -18 -17 -18 -9 0 -22 -6 -28 -14 -7 -9 -41 -16 -96 -19
-56 -4 -78 -2 -65 4 15 7 13 8 -12 3 -17 -3 -34 0 -38 5 -3 6 -12 11 -18 11
-7 0 -6 -4 3 -11 12 -8 9 -9 -10 -4 -14 3 -44 9 -67 12 -42 6 -55 17 -30 26 6
3 2 6 -10 6 -12 1 -26 8 -30 16 -7 12 -16 13 -41 5 -34 -9 -62 -4 -74 14 -4 6
-32 11 -63 11 -31 0 -59 5 -63 10 -12 16 -69 45 -90 45 -11 0 -25 7 -32 15 -7
8 -20 15 -30 15 -10 0 -45 25 -80 55 -57 52 -105 87 -167 125 -36 22 -72 54
-176 155 -161 158 -223 235 -269 335 -39 85 -43 118 -43 365 0 200 -12 379
-30 466 -6 25 -9 26 -53 21 -53 -5 -206 -61 -267 -97 -68 -39 -119 -85 -135
-120 -13 -27 -19 -32 -33 -24 -10 6 -15 14 -12 20 4 5 3 9 0 9 -11 0 -69 -34
-77 -44 -4 -6 -14 -4 -24 5 -10 8 -19 10 -21 4 -10 -30 -30 -59 -41 -63 -11
-3 -12 0 -2 18 10 19 9 21 -7 18 -10 -2 -17 -10 -16 -19 2 -10 -5 -14 -23 -14
-14 1 -59 -15 -100 -36 -41 -20 -88 -39 -103 -42 -16 -4 -73 -27 -127 -52
l-98 -46 -71 10 c-38 6 -90 15 -114 20 -51 10 -242 6 -346 -7 -79 -11 -183
-37 -235 -60 -116 -51 -240 -118 -293 -160 -34 -26 -99 -72 -144 -100 -44 -29
-84 -59 -87 -67 -3 -9 0 -12 10 -8 10 3 14 -2 14 -18 0 -17 -15 -35 -50 -61
-45 -33 -50 -35 -50 -17 0 11 5 29 11 41 14 27 7 32 -17 10 -10 -9 -31 -25
-46 -35 -26 -16 -28 -22 -28 -86 0 -55 -5 -78 -25 -114 -23 -40 -55 -69 -55
-49 1 44 23 148 35 166 8 12 12 25 9 29 -7 6 -47 -9 -84 -33 -14 -9 -58 -22
-98 -28 -75 -12 -151 -45 -210 -89 -39 -29 -98 -117 -107 -159 -13 -57 -16
-63 -38 -70 -23 -7 -30 -12 -162 -109 -151 -112 -315 -299 -315 -359 0 -8 -6
-21 -14 -29 -14 -13 -30 -71 -55 -198 -13 -61 -16 -251 -5 -293 l6 -26 5778 0
5779 0 3 23 c2 12 0 54 -3 92 -6 74 -1 113 11 81 3 -10 7 47 9 128 l2 146 -45
0 c-64 0 -76 7 -76 44 0 18 -9 68 -20 111 -13 50 -18 91 -14 117 4 22 2 49 -4
61 -6 12 -18 76 -26 142 -9 66 -25 179 -36 250 -11 72 -24 159 -29 195 -5 36
-21 142 -36 235 -14 94 -32 213 -40 265 -7 52 -28 192 -45 310 -59 402 -69
510 -52 553 18 46 55 77 94 77 23 0 29 4 26 18 -2 13 -15 18 -51 20 -58 4 -64
27 -9 36 20 3 110 6 200 6 l162 0 -2 187 -3 187 -30 6 c-16 4 -40 12 -52 18
-17 9 -22 9 -27 -3 -7 -19 -30 -19 -46 0 -7 8 -19 15 -26 15 -8 0 -14 -7 -14
-15 0 -8 5 -15 10 -15 6 0 5 -8 -2 -20 -7 -11 -24 -20 -38 -20 -14 0 -31 -4
-38 -9 -8 -5 -26 -2 -45 8 -59 30 -59 31 -35 51 13 11 20 19 15 20 -10 0 -51
-23 -59 -35 -4 -5 -11 -6 -15 -1 -4 4 0 13 9 20 10 7 15 16 11 19 -3 4 8 7 25
7 17 0 33 4 36 9 3 4 36 6 74 3 64 -4 69 -3 75 17 7 28 28 27 56 -3 21 -22 25
-23 69 -12 l47 12 3 275 c3 271 -4 389 -34 554 -8 44 -14 91 -13 105 1 24 1
24 14 -5 8 -16 15 -46 15 -65 1 -19 5 -44 10 -55 5 -11 9 407 9 968 l1 987
-47 -2 c-27 -1 -68 -3 -93 -5z m-1022 -1065 c-2 -12 -8 -23 -14 -25 -7 -2 -10
6 -7 22 6 30 26 34 21 3z m3 -215 c5 -15 14 -61 19 -102 5 -42 18 -123 30
-181 12 -58 23 -118 24 -135 2 -16 8 -50 14 -75 6 -25 18 -90 27 -145 9 -55
18 -113 21 -130 2 -16 9 -55 14 -85 5 -30 14 -92 21 -138 6 -45 15 -85 20 -88
5 -3 9 -27 9 -53 0 -31 5 -53 15 -61 13 -11 15 -8 15 19 0 17 -4 31 -10 31 -5
0 -9 12 -9 28 0 15 -4 56 -9 92 -4 35 -5 80 -2 100 8 39 15 28 24 -35 3 -22
13 -85 21 -140 8 -55 17 -113 19 -130 2 -16 6 -37 10 -45 5 -13 12 -62 31
-230 7 -58 42 -272 54 -330 5 -25 12 -74 16 -110 3 -36 12 -105 20 -155 8 -49
28 -191 45 -315 17 -124 33 -237 36 -251 5 -36 43 -319 55 -413 5 -44 17 -123
25 -175 20 -118 29 -315 13 -261 -6 19 -13 53 -16 75 -3 22 -10 43 -15 46 -5
3 -13 46 -18 95 -5 49 -14 116 -20 149 -6 33 -13 78 -15 100 -3 22 -9 58 -14
80 l-9 40 0 -40 c-1 -22 8 -94 19 -160 11 -66 24 -165 29 -220 5 -55 12 -111
16 -125 4 -14 6 -34 5 -46 -2 -19 10 -108 44 -339 8 -55 22 -156 30 -225 22
-168 65 -461 70 -480 2 -8 5 -37 6 -65 1 -27 6 -58 11 -67 25 -50 -76 -7 -127
54 -16 18 -42 41 -58 51 -17 11 -38 29 -48 41 -10 12 -36 35 -58 51 -52 36
-81 82 -81 130 0 21 -6 72 -14 114 -8 42 -19 112 -25 156 -14 98 -56 394 -71
490 -5 39 -17 120 -25 180 -8 61 -22 160 -31 220 -9 61 -20 148 -25 195 -5 47
-13 108 -18 135 -6 28 -17 104 -26 170 -8 66 -24 181 -35 255 -11 74 -32 221
-45 325 -14 105 -34 244 -45 310 -11 66 -22 147 -26 180 -3 33 -10 83 -15 110
-8 42 -28 185 -45 315 -2 19 -13 96 -24 170 -41 277 -73 506 -77 550 -2 25
-10 54 -17 65 -16 25 -9 101 12 133 8 13 22 36 31 52 56 103 114 189 171 258
15 17 19 15 31 -15z m526 -523 c33 -20 58 -54 49 -69 -3 -5 3 -11 14 -14 11
-3 20 -13 20 -22 0 -14 6 -16 26 -11 24 6 26 5 21 -14 -4 -16 -2 -20 8 -16 9
3 12 0 8 -10 -3 -7 -1 -14 5 -14 5 0 12 -10 15 -22 5 -18 9 -19 21 -9 19 16
40 5 32 -16 -5 -13 -1 -14 24 -10 24 5 32 2 41 -16 17 -31 35 -47 53 -47 20 0
20 10 0 38 -17 24 -13 27 17 12 10 -6 19 -19 19 -30 0 -21 30 -34 71 -32 34 3
53 -21 55 -67 1 -20 3 -36 4 -36 4 0 11 -48 13 -95 1 -25 7 -49 14 -55 14 -12
36 -102 28 -115 -3 -5 -1 -11 5 -15 20 -12 11 -52 -15 -63 -14 -7 -31 -12 -36
-12 -6 0 -39 -13 -74 -29 -78 -36 -268 -206 -260 -232 4 -11 -1 -18 -15 -22
-20 -5 -29 -37 -10 -37 6 0 23 -12 37 -26 28 -28 66 -34 102 -15 22 12 81 15
81 4 0 -5 -7 -17 -15 -27 -8 -11 -15 -23 -15 -27 0 -3 28 -10 63 -14 45 -5 56
-9 42 -15 -17 -6 -14 -9 18 -15 21 -4 58 -5 82 -2 48 5 48 6 60 -65 7 -42 -4
-49 -32 -19 -10 10 -33 22 -50 26 -29 6 -34 3 -42 -18 -14 -37 -55 -47 -195
-50 l-130 -2 -12 75 c-13 74 -33 186 -54 305 -6 33 -17 106 -25 162 -14 106
-34 235 -60 388 -15 92 -55 400 -55 423 0 17 10 15 47 -8z m-280 -52 c-2 -13
-4 -3 -4 22 0 25 2 35 4 23 2 -13 2 -33 0 -45z m413 -17 c0 -16 -13 -20 -31
-10 -10 5 -16 16 -13 24 5 11 11 12 25 4 10 -5 19 -13 19 -18z m23 -6 c-3 -9
-8 -14 -10 -11 -3 3 -2 9 2 15 9 16 15 13 8 -4z m81 -79 c-17 -12 -41 -14 -64
-6 -6 3 49 17 70 19 9 1 7 -4 -6 -13z m-584 -32 c0 -14 -4 -23 -10 -19 -5 3
-10 15 -10 26 0 10 5 19 10 19 6 0 10 -12 10 -26z m-490 -16 c0 -40 -17 -52
-18 -13 -1 19 3 35 8 35 6 0 10 -10 10 -22z m1205 -18 c3 -5 -1 -10 -9 -10 -9
0 -16 5 -16 10 0 6 4 10 9 10 6 0 13 -4 16 -10z m-691 -121 c-3 -5 -10 -7 -15
-3 -5 3 -7 10 -3 15 3 5 10 7 15 3 5 -3 7 -10 3 -15z m123 -196 c-3 -10 -5 -2
-5 17 0 19 2 27 5 18 2 -10 2 -26 0 -35z m33 -151 c0 -7 -4 -10 -10 -7 -5 3
-10 16 -10 28 0 18 2 19 10 7 5 -8 10 -21 10 -28z m51 -378 c-7 -27 -8 -25
-15 24 -8 62 4 95 16 41 4 -20 4 -49 -1 -65z m339 -14 c0 -5 -5 -10 -11 -10
-5 0 -7 5 -4 10 3 6 8 10 11 10 2 0 4 -4 4 -10z m234 -8 c6 -11 -4 -52 -13
-52 -4 0 -16 6 -26 14 -16 12 -17 16 -6 30 14 17 37 21 45 8z m-567 -44 c-3
-8 -6 -5 -6 6 -1 11 2 17 5 13 3 -3 4 -12 1 -19z m23 -59 c0 -5 -4 -9 -10 -9
-5 0 -10 7 -10 16 0 8 5 12 10 9 6 -3 10 -10 10 -16z m10 -85 c0 -8 -5 -12
-10 -9 -6 4 -8 11 -5 16 9 14 15 11 15 -7z m-3 -46 c-3 -8 -6 -5 -6 6 -1 11 2
17 5 13 3 -3 4 -12 1 -19z m80 -585 c-3 -10 -5 -4 -5 12 0 17 2 24 5 18 2 -7
2 -21 0 -30z m23 -81 c0 -7 -4 -10 -10 -7 -5 3 -10 16 -10 28 0 18 2 19 10 7
5 -8 10 -21 10 -28z m10 -64 c-1 -26 -3 -30 -10 -16 -6 9 -7 23 -4 32 9 25 14
19 14 -16z m-7880 -217 c0 -14 -28 -33 -40 -26 -5 3 -10 1 -10 -4 0 -6 -7 -11
-15 -11 -15 0 -21 31 -8 43 10 10 73 8 73 -2z m-1440 -297 c0 -9 -9 -18 -20
-21 -21 -6 -44 -45 -55 -93 -4 -16 -11 -30 -16 -30 -5 0 -9 -13 -9 -30 0 -16
-6 -33 -14 -37 -14 -9 -46 -163 -46 -226 0 -25 -5 -40 -15 -44 -26 -9 -29 4
-12 64 9 32 19 92 23 133 4 41 10 80 14 85 4 6 10 25 14 43 3 19 15 45 26 59
11 14 20 31 20 38 0 15 29 48 55 63 27 16 35 15 35 -4z m-720 -459 c0 -9 -10
-19 -23 -24 -29 -11 -80 -69 -102 -115 -10 -21 -22 -33 -30 -30 -13 5 -65 -53
-65 -73 0 -6 -7 -16 -15 -23 -12 -10 -15 -9 -15 4 0 22 46 93 70 108 11 7 20
16 20 20 0 4 21 27 47 50 27 24 59 55 73 70 29 31 40 35 40 13z m519 -99 c-9
-8 -10 -5 -5 14 3 14 6 32 7 40 1 8 4 2 6 -14 3 -16 -1 -34 -8 -40z m9571 -13
c0 -41 -3 -54 -10 -43 -17 26 -12 100 7 100 2 0 3 -26 3 -57z m-4984 27 c8 0
14 5 14 10 0 6 9 10 20 10 25 0 26 -17 1 -25 -25 -8 -106 -72 -107 -85 -1 -5
-2 -19 -3 -30 -1 -23 -21 -28 -21 -5 0 8 -4 15 -10 15 -9 0 -14 -28 -11 -57 1
-6 -3 -14 -9 -18 -19 -12 -11 -38 10 -32 11 3 22 2 25 -3 8 -12 -38 -20 -51
-9 -7 6 -10 17 -8 24 3 8 7 29 8 47 2 18 4 39 5 46 0 7 13 17 29 23 23 8 54
45 60 72 3 14 27 35 30 26 2 -5 10 -9 18 -9z m5001 -202 c-3 -8 -6 -5 -6 6 -1
11 2 17 5 13 3 -3 4 -12 1 -19z m-10385 -94 c-24 -17 -35 -74 -15 -81 19 -8
16 -25 -4 -21 -22 4 -58 -26 -48 -41 3 -6 4 -11 1 -11 -2 0 -11 -3 -20 -6 -11
-4 -16 -1 -16 10 0 9 4 16 9 16 4 0 11 19 14 43 6 44 59 156 80 169 8 5 13 -4
15 -28 3 -27 -2 -40 -16 -50z m5076 74 c-3 -7 -13 -15 -24 -17 -16 -3 -17 -1
-5 13 16 19 34 21 29 4z m5332 -75 c0 -18 -4 -33 -9 -33 -5 0 -7 10 -3 22 3
14 2 19 -6 14 -8 -5 -12 5 -12 31 1 36 2 37 15 19 8 -11 15 -35 15 -53z
m-5135 32 c-16 -14 -33 -25 -37 -25 -4 0 -32 -16 -62 -35 -30 -19 -59 -35 -63
-35 -4 0 -39 -15 -78 -34 -90 -44 -122 -53 -122 -32 0 9 9 16 19 16 10 0 21 7
24 15 4 8 17 15 31 15 15 0 22 4 17 11 -4 7 -1 10 7 7 8 -3 26 1 40 8 15 7 29
11 32 8 6 -6 14 0 66 47 16 15 43 30 60 34 17 4 31 10 31 13 0 4 15 8 33 9
l32 2 -30 -24z m5145 -157 c0 -13 3 -34 7 -47 4 -16 2 -22 -4 -18 -13 8 -22
87 -11 87 5 0 8 -10 8 -22z m30 -175 c0 -63 -16 -64 -18 -1 -1 23 -5 51 -8 63
-6 17 -5 18 10 6 11 -9 16 -30 16 -68z m-10563 45 c-3 -8 -6 -5 -6 6 -1 11 2
17 5 13 3 -3 4 -12 1 -19z m10583 -204 c0 -14 -4 -22 -10 -19 -5 3 -10 17 -10
31 0 14 4 22 10 19 6 -3 10 -17 10 -31z m57 -406 c-3 -8 -6 -5 -6 6 -1 11 2
17 5 13 3 -3 4 -12 1 -19z"/>
<path d="M13455 3538 c8 -52 23 -136 37 -200 11 -53 30 -56 24 -5 -2 18 -4 45
-5 60 -1 16 -5 26 -11 22 -5 -3 -10 1 -10 9 0 9 4 16 9 16 4 0 4 23 -2 50 -5
28 -14 50 -18 50 -5 0 -9 9 -9 20 0 11 -5 20 -11 20 -7 0 -9 -15 -4 -42z"/>
<path d="M13517 3241 c-4 -19 -5 -36 -2 -39 10 -11 16 7 13 40 l-3 33 -8 -34z"/>
<path d="M13545 2975 c3 -22 8 -71 12 -108 3 -37 9 -69 12 -72 10 -6 -6 167
-19 195 -9 22 -10 20 -5 -15z"/>
<path d="M13580 2745 c0 -14 3 -25 8 -25 4 0 7 11 7 25 0 14 -3 25 -7 25 -5 0
-8 -11 -8 -25z"/>
<path d="M13595 2629 c-4 -6 -5 -12 -2 -15 2 -3 7 2 10 11 7 17 1 20 -8 4z"/>
<path d="M13603 2555 c0 -22 2 -30 4 -17 2 12 2 30 0 40 -3 9 -5 -1 -4 -23z"/>
<path d="M13630 2326 c0 -18 6 -46 14 -60 l14 -27 4 25 c6 28 -12 96 -24 96
-5 0 -8 -15 -8 -34z"/>
<path d="M13825 4200 c-3 -5 -1 -10 4 -10 6 0 11 5 11 10 0 6 -2 10 -4 10 -3
0 -8 -4 -11 -10z"/>
<path d="M14205 3980 c-3 -5 -1 -10 4 -10 6 0 11 5 11 10 0 6 -2 10 -4 10 -3
0 -8 -4 -11 -10z"/>
<path d="M14117 3041 c-2 -10 -1 -25 4 -32 6 -10 9 -4 9 19 0 36 -5 42 -13 13z"/>
<path d="M8147 6086 c-9 -7 -27 -11 -40 -9 -14 3 -29 -2 -36 -11 -12 -14 -9
-16 28 -16 27 0 40 -4 36 -10 -4 -7 -53 -11 -128 -10 -191 1 -194 1 -238 -49
-22 -23 -39 -47 -39 -52 0 -5 -11 -9 -25 -9 -22 0 -24 -4 -24 -42 0 -24 -3
-60 -7 -82 -7 -39 18 -106 53 -148 8 -9 12 -22 8 -28 -4 -6 -1 -17 5 -25 7 -8
19 -45 26 -82 15 -71 73 -200 83 -184 4 5 20 11 36 13 28 3 30 1 28 -26 -1
-16 -8 -33 -15 -38 -10 -6 -8 -8 5 -8 10 0 17 -8 17 -19 0 -11 15 -31 33 -45
17 -14 41 -35 52 -45 40 -40 126 -56 290 -55 129 1 165 9 165 38 0 14 12 28
35 40 19 10 32 23 29 27 -3 5 4 9 15 9 10 0 22 -6 24 -12 3 -7 6 -2 7 12 1 31
22 60 44 60 9 0 16 5 16 12 0 6 3 8 7 5 3 -4 11 -2 18 3 6 5 58 10 114 11
l103 1 -7 34 c-5 31 -4 34 20 34 14 0 25 5 25 10 0 6 -7 10 -15 10 -17 0 -20
16 -4 26 7 4 8 18 4 38 -16 72 -16 73 24 80 48 7 68 30 76 88 9 61 1 94 -25
101 -17 4 -20 12 -18 40 2 33 -23 87 -41 87 -5 0 -14 13 -21 30 -7 16 -15 28
-19 26 -4 -3 -17 11 -30 30 -15 22 -36 37 -60 44 -20 5 -55 23 -78 40 -40 29
-47 31 -135 31 -51 0 -134 4 -184 9 -49 5 -112 11 -140 13 -27 2 -56 7 -64 10
-8 4 -23 0 -33 -7z m353 -532 c0 -17 -22 -14 -28 4 -2 7 3 12 12 12 9 0 16 -7
16 -16z m60 -14 c13 -9 13 -10 0 -10 -8 0 -22 5 -30 10 -13 9 -13 10 0 10 8 0
22 -5 30 -10z"/>
<path d="M7060 6016 c0 -33 0 -33 -55 -39 -30 -3 -60 -9 -67 -14 -7 -4 -38 -6
-69 -4 -34 1 -60 -2 -63 -8 -4 -6 -22 -11 -39 -11 -18 0 -48 -5 -67 -11 -19
-6 -68 -14 -109 -19 -40 -5 -84 -16 -97 -25 -13 -8 -31 -15 -40 -15 -32 0
-160 -69 -205 -110 -24 -22 -50 -40 -58 -40 -11 0 -11 -3 -1 -15 6 -8 9 -23 5
-35 -6 -18 -2 -20 32 -22 21 -1 53 -1 71 1 19 1 40 -4 49 -10 8 -7 32 -12 53
-11 49 3 65 -20 55 -80 -6 -35 -5 -40 9 -35 9 4 16 2 16 -3 0 -4 -15 -13 -34
-20 -18 -6 -64 -39 -101 -74 -52 -49 -69 -72 -75 -102 -5 -21 -12 -50 -16 -64
-7 -24 -7 -24 13 -7 24 21 34 22 27 2 -7 -18 -5 -18 52 -4 40 10 48 9 72 -8
15 -11 37 -23 50 -27 12 -4 45 -26 73 -48 38 -30 62 -41 88 -42 35 0 36 -2 33
-31 -5 -39 12 -53 69 -60 24 -3 53 -7 64 -10 11 -2 25 -4 31 -4 8 -1 12 -52 5
-80 -1 -3 -8 4 -16 15 -14 19 -14 18 -15 -3 0 -13 3 -23 8 -23 4 0 25 -5 46
-10 37 -8 41 -6 77 28 21 20 55 53 76 73 21 20 51 63 66 95 16 33 36 75 46 96
11 22 15 41 10 50 -16 25 -8 43 31 70 31 22 40 34 40 57 0 17 -4 33 -10 36
-13 8 -13 166 -1 197 5 13 25 40 44 60 20 20 38 52 42 70 3 18 11 46 17 61 9
23 8 31 -5 44 -13 14 -19 14 -32 3 -13 -11 -19 -10 -38 9 -13 11 -28 21 -35
21 -17 0 -76 83 -92 129 -16 50 -30 53 -30 7z m-480 -566 c0 -6 -8 -14 -17
-17 -10 -4 -53 -28 -96 -55 -43 -26 -81 -48 -85 -48 -3 0 -14 -8 -24 -17 -13
-12 -21 -14 -29 -6 -14 14 18 62 67 100 52 39 184 70 184 43z m-15 -161 c4
-22 5 -42 3 -43 -1 -2 -29 -1 -61 2 -63 5 -81 22 -54 49 13 13 38 21 99 32 3
0 9 -17 13 -40z"/>
<path d="M2530 5875 c0 -14 -9 -43 -20 -64 -22 -45 -50 -120 -50 -138 0 -21
13 -15 60 30 67 62 90 152 48 181 -31 22 -38 20 -38 -9z m0 -115 c0 -5 -2 -10
-4 -10 -3 0 -8 5 -11 10 -3 6 -1 10 4 10 6 0 11 -4 11 -10z"/>
<path d="M2290 5786 c0 -29 -7 -84 -14 -122 -8 -38 -18 -87 -21 -108 -5 -29
-9 -36 -16 -25 -7 11 -9 11 -9 -3 0 -29 43 -22 73 12 15 16 27 34 27 39 0 5 7
14 16 22 24 20 54 85 54 117 0 43 -27 89 -62 107 -17 8 -35 15 -40 15 -4 0 -8
-24 -8 -54z"/>
<path d="M2242 5650 c0 -14 2 -19 5 -12 2 6 2 18 0 25 -3 6 -5 1 -5 -13z"/>
<path d="M2232 5580 c0 -14 2 -19 5 -12 2 6 2 18 0 25 -3 6 -5 1 -5 -13z"/>
<path d="M3980 5551 c0 -5 7 -11 15 -15 9 -3 15 0 15 9 0 8 -7 15 -15 15 -8 0
-15 -4 -15 -9z"/>
<path d="M1540 5370 c-8 -12 -15 -25 -14 -30 1 -6 2 -17 3 -25 2 -24 18 -17
31 14 7 18 8 36 3 45 -8 14 -11 13 -23 -4z"/>
<path d="M1676 5383 c-12 -12 -5 -23 14 -23 11 0 20 4 20 9 0 11 -26 22 -34
14z"/>
<path d="M3962 5300 c2 -24 9 -36 21 -38 23 -5 21 17 -3 48 l-21 25 3 -35z"/>
<path d="M1268 5183 c7 -3 16 -2 19 1 4 3 -2 6 -13 5 -11 0 -14 -3 -6 -6z"/>
<path d="M3891 5044 c0 -11 3 -14 6 -6 3 7 2 16 -1 19 -3 4 -6 -2 -5 -13z"/>
<path d="M3613 4953 c9 -2 23 -2 30 0 6 3 -1 5 -18 5 -16 0 -22 -2 -12 -5z"/>
<path d="M3508 4943 c6 -2 18 -2 25 0 6 3 1 5 -13 5 -14 0 -19 -2 -12 -5z"/>
<path d="M3378 4933 c18 -2 45 -2 60 0 15 2 0 4 -33 4 -33 0 -45 -2 -27 -4z"/>
<path d="M3135 4920 l-70 -6 60 -1 c33 0 94 3 135 7 l75 7 -65 0 c-36 0 -96
-3 -135 -7z"/>
<path d="M5680 4914 c0 -8 4 -13 9 -10 5 3 7 -23 6 -59 -2 -36 1 -67 6 -71 5
-3 6 -10 3 -16 -7 -11 34 -98 47 -98 10 0 -1 82 -14 98 -6 8 -6 12 2 12 6 0
11 7 11 15 0 8 5 15 10 15 6 0 10 18 10 40 0 32 -6 46 -27 65 -32 28 -63 32
-63 9z"/>
<path d="M2968 4903 c6 -2 18 -2 25 0 6 3 1 5 -13 5 -14 0 -19 -2 -12 -5z"/>
<path d="M2828 4893 c6 -2 18 -2 25 0 6 3 1 5 -13 5 -14 0 -19 -2 -12 -5z"/>
<path d="M2718 4883 c18 -2 45 -2 60 0 15 2 0 4 -33 4 -33 0 -45 -2 -27 -4z"/>
<path d="M2568 4873 c18 -2 45 -2 60 0 15 2 0 4 -33 4 -33 0 -45 -2 -27 -4z"/>
<path d="M2463 4863 c9 -2 25 -2 35 0 9 3 1 5 -18 5 -19 0 -27 -2 -17 -5z"/>
<path d="M2208 4843 c17 -2 47 -2 65 0 17 2 3 4 -33 4 -36 0 -50 -2 -32 -4z"/>
<path d="M1748 4803 c7 -3 16 -2 19 1 4 3 -2 6 -13 5 -11 0 -14 -3 -6 -6z"/>
<path d="M5850 4713 c0 -16 5 -35 10 -43 7 -11 10 -4 10 28 0 23 -4 42 -10 42
-5 0 -10 -12 -10 -27z"/>
<path d="M7795 4441 c-27 -8 -81 -16 -119 -18 -38 -3 -75 -10 -81 -16 -7 -7
-22 -20 -34 -29 -17 -14 -20 -26 -16 -64 2 -27 13 -59 25 -76 11 -16 19 -32
16 -37 -3 -5 -36 -6 -73 -4 -43 3 -79 0 -98 -8 -16 -7 -34 -13 -40 -13 -5 -1
-16 -9 -23 -19 -8 -10 -21 -15 -30 -13 -19 7 -69 -32 -87 -67 -6 -12 -19 -21
-28 -21 -18 2 -24 -30 -7 -41 15 -9 1 -31 -27 -44 -14 -6 -45 -27 -68 -46 -23
-19 -53 -35 -66 -35 -34 0 -88 52 -100 94 -6 20 -16 36 -24 36 -23 0 -18 27 6
33 11 3 25 19 32 36 6 16 18 32 26 36 42 15 60 32 49 43 -6 6 -8 15 -4 19 4 4
11 1 16 -7 7 -11 10 -6 10 20 1 35 1 35 17 13 15 -22 43 -30 56 -17 3 4 -1 23
-9 43 -9 20 -23 74 -33 121 -14 64 -20 80 -25 63 -5 -17 -15 -23 -37 -23 -26
0 -29 -3 -23 -24 4 -17 -1 -31 -15 -45 -13 -13 -16 -21 -8 -22 6 0 2 -4 -10
-9 -13 -5 -23 -16 -23 -25 0 -8 -9 -15 -20 -15 -11 0 -20 -7 -20 -15 0 -9 -7
-18 -16 -22 -8 -3 -20 -16 -24 -29 -6 -16 -15 -22 -25 -18 -10 4 -26 -3 -40
-16 l-25 -23 21 -11 c21 -11 24 -30 4 -31 -33 -3 -45 -19 -45 -60 0 -24 -5
-45 -11 -47 -14 -5 10 -48 27 -48 6 0 23 14 37 30 28 30 60 39 73 19 3 -6 2
-14 -4 -18 -17 -10 -30 -54 -25 -86 3 -22 -1 -36 -16 -49 -12 -11 -21 -24 -21
-30 0 -6 -26 -36 -58 -67 -74 -73 -94 -98 -87 -109 4 -6 1 -10 -4 -10 -6 0
-11 5 -11 11 0 17 -39 -35 -55 -75 -13 -31 -13 -37 1 -50 12 -12 13 -20 4 -37
-6 -11 -9 -27 -6 -35 3 -8 1 -14 -4 -14 -6 0 -10 -4 -10 -10 0 -5 7 -10 15
-10 10 0 15 -11 15 -35 0 -18 6 -38 13 -42 16 -11 37 -72 37 -111 0 -18 5 -32
10 -32 12 0 31 -14 65 -48 29 -29 45 -21 45 22 0 31 4 35 53 54 28 11 73 26
100 32 26 7 47 18 47 24 0 6 21 32 46 58 35 37 54 49 87 54 23 4 53 16 66 26
22 16 37 18 116 14 50 -3 103 -10 118 -15 16 -6 39 -11 52 -11 15 0 25 -7 29
-22 3 -13 21 -33 41 -46 32 -21 48 -52 25 -52 -5 0 -16 -13 -24 -29 -9 -16
-36 -39 -62 -52 -26 -13 -55 -28 -65 -34 -12 -6 -17 -16 -14 -26 6 -19 -4 -73
-12 -65 -3 2 -18 0 -33 -6 -25 -8 -28 -12 -17 -29 6 -10 24 -24 39 -30 16 -6
28 -17 29 -23 1 -10 4 -32 12 -84 2 -12 9 -28 15 -34 7 -7 12 -22 12 -33 0
-14 13 -29 40 -44 33 -18 38 -25 30 -40 -5 -10 -6 -22 -2 -26 4 -5 -1 -5 -10
-2 -24 9 -44 -19 -28 -38 10 -12 10 -19 2 -27 -7 -7 -12 -27 -12 -45 0 -18 -6
-43 -12 -54 -10 -17 -10 -23 0 -26 22 -8 12 -30 -17 -36 -19 -4 -31 -14 -35
-29 -3 -13 -21 -40 -40 -60 -19 -20 -32 -39 -30 -41 2 -2 -5 -22 -16 -45 -14
-28 -27 -42 -40 -42 -11 0 -19 3 -18 8 2 4 -1 8 -5 9 -4 1 -20 9 -34 19 -26
17 -27 16 -50 -12 -30 -38 -25 -49 26 -49 38 0 44 -3 56 -31 14 -33 32 -44 70
-44 15 0 31 -11 44 -29 11 -15 34 -34 51 -41 16 -7 28 -16 25 -20 -2 -4 9 -19
25 -35 21 -20 30 -41 35 -77 4 -28 13 -52 21 -55 8 -3 14 -18 14 -35 0 -16 7
-36 15 -44 8 -9 15 -33 15 -53 0 -29 6 -42 23 -54 18 -12 20 -18 11 -34 -6
-10 -15 -55 -19 -100 -6 -75 -5 -82 13 -92 12 -6 29 -11 40 -11 11 0 27 -10
35 -23 13 -17 16 -18 16 -6 1 19 30 34 43 21 4 -4 -1 -18 -13 -31 -12 -12 -18
-25 -15 -28 4 -4 31 19 61 50 29 31 61 57 71 57 11 0 15 6 11 20 -3 11 -1 18
3 15 5 -3 21 6 36 20 15 14 33 25 40 25 17 0 142 118 149 141 4 10 9 18 13 17
4 -1 17 2 30 6 16 5 29 3 41 -8 22 -20 55 -11 71 20 8 13 19 24 26 24 20 0 33
32 27 64 -5 25 -4 28 16 21 15 -5 21 -2 21 9 0 9 -5 16 -12 16 -6 0 -4 7 5 18
10 10 17 26 17 35 0 20 57 83 67 73 4 -4 2 -15 -5 -26 -8 -13 -8 -20 0 -22 15
-5 -8 -48 -26 -48 -26 0 -37 -26 -30 -69 7 -44 22 -49 39 -13 5 12 13 22 17
22 5 0 8 7 8 15 0 8 9 15 20 15 23 0 70 20 70 30 0 4 -13 13 -30 20 -20 8 -33
23 -39 44 -5 17 -12 40 -17 51 -7 18 -6 18 9 6 9 -7 14 -17 11 -22 -3 -5 6
-14 20 -20 13 -6 22 -17 20 -24 -7 -17 67 -29 77 -13 11 17 1 28 -26 28 -12 0
-25 7 -29 15 -3 8 -14 15 -25 15 -15 0 -19 7 -19 35 0 42 5 44 18 9 6 -15 16
-24 23 -21 47 19 50 20 43 9 -4 -7 -2 -12 3 -12 6 0 11 7 11 15 0 8 9 15 20
15 11 0 20 4 20 9 0 17 -30 40 -45 35 -17 -7 -20 7 -6 22 5 5 11 22 13 38 5
43 26 44 34 2 3 -20 8 -36 11 -36 2 0 13 9 25 20 30 28 36 25 44 -17 9 -51 12
-55 34 -43 16 9 19 20 17 68 -2 56 -5 60 -39 47 -23 -9 -48 39 -30 57 17 17
15 28 -3 22 -10 -4 -15 0 -15 11 0 11 5 15 14 12 8 -3 17 1 20 9 8 22 8 22
-10 20 -32 -2 -27 24 5 30 22 5 35 16 45 38 25 56 26 67 11 89 -13 19 -12 22
5 34 23 16 42 9 33 -12 -4 -11 3 -15 27 -15 30 0 32 2 26 26 -5 18 -2 32 10
45 15 17 15 20 0 43 -13 21 -21 24 -48 19 -22 -4 -29 -3 -24 5 4 7 13 12 19
12 7 0 23 14 37 30 14 17 33 30 43 30 16 0 18 5 13 28 -4 15 -3 22 2 15 13
-20 52 -4 52 22 0 13 7 30 15 39 8 8 15 22 15 30 0 9 5 16 10 16 6 0 10 -7 10
-15 0 -8 5 -15 10 -15 6 0 10 17 10 38 0 66 28 205 55 277 63 167 115 327 109
336 -9 15 -24 0 -24 -24 0 -31 -39 -64 -52 -46 -8 11 -9 10 -4 -3 3 -11 -2
-22 -14 -28 -11 -6 -20 -17 -20 -25 0 -8 -7 -15 -16 -15 -8 0 -21 -15 -29 -34
-17 -39 -36 -49 -69 -36 -36 13 -40 28 -15 49 22 18 22 21 10 67 -7 27 -13 71
-12 98 2 54 -7 66 -51 66 -27 0 -55 -30 -41 -44 3 -3 2 -6 -3 -6 -5 0 -11 -21
-12 -47 -3 -70 -9 -85 -32 -71 -10 6 -16 16 -14 22 2 6 0 34 -5 61 -6 34 -6
54 1 63 6 7 8 15 5 18 -3 3 -2 16 3 29 7 18 4 27 -10 40 -14 13 -18 25 -13 49
3 17 10 35 14 40 18 20 8 44 -23 57 -18 7 -54 35 -79 61 -26 27 -51 48 -58 48
-6 0 -18 12 -28 28 -25 41 -43 52 -73 45 -16 -3 -59 4 -97 15 -98 29 -137 34
-167 21 -24 -12 -30 -9 -66 26 -22 22 -40 47 -40 57 0 10 -6 18 -14 18 -20 0
-76 49 -76 66 0 8 4 14 9 14 19 0 43 71 37 108 -11 64 -56 140 -87 147 -37 8
-105 2 -164 -14z m-755 -161 c0 -5 -4 -10 -10 -10 -5 0 -10 5 -10 10 0 6 5 10
10 10 6 0 10 -4 10 -10z m-22 -67 c5 -18 -10 -16 -34 2 -18 15 -18 15 5 13 14
-2 26 -9 29 -15z m-51 -48 c-16 -17 -20 -11 -12 16 5 16 9 18 15 9 4 -7 3 -19
-3 -25z m-7 -270 c0 -19 -35 -28 -58 -16 -11 6 -22 7 -26 4 -3 -3 -6 -1 -6 5
0 7 11 12 24 12 14 0 27 4 31 10 8 13 35 1 35 -15z m380 -99 c0 -7 -7 -19 -15
-26 -12 -10 -15 -9 -15 7 0 11 3 23 7 26 11 12 23 8 23 -7z m918 -434 c2 -11
11 -22 21 -25 9 -2 25 -20 34 -40 10 -19 23 -38 30 -40 9 -4 9 -8 -2 -15 -10
-7 -11 -14 -2 -31 7 -11 17 -21 24 -21 19 0 14 -94 -5 -98 -11 -2 -15 8 -16
33 -2 51 -8 57 -60 53 -38 -2 -48 1 -57 17 -5 11 -22 33 -38 49 -15 16 -27 37
-27 47 0 13 -6 16 -21 12 -15 -4 -27 0 -35 12 -10 13 -21 16 -43 12 -25 -5
-28 -3 -24 13 5 20 29 34 44 24 5 -3 9 -1 9 5 0 12 36 17 110 14 47 -1 55 -4
58 -21z m-262 -37 l29 -15 -33 -6 c-17 -4 -32 -11 -32 -16 0 -6 -9 -8 -20 -5
-11 3 -23 1 -26 -4 -6 -11 -81 -11 -109 0 l-20 8 20 6 c11 3 38 9 60 13 22 4
49 13 60 20 25 18 36 17 71 -1z m-1247 -134 c-13 -11 -26 -17 -29 -14 -6 6 30
33 43 33 5 0 -1 -9 -14 -19z m1542 -98 c8 -16 27 -40 43 -54 18 -16 26 -31 21
-39 -4 -7 -3 -15 2 -19 5 -3 13 -21 17 -40 3 -19 3 -31 -1 -28 -4 4 -13 -11
-21 -34 -7 -23 -26 -52 -40 -66 -25 -23 -26 -24 -3 -13 30 15 41 1 41 -52 0
-36 -1 -37 -36 -34 -19 1 -63 -1 -96 -6 -41 -5 -65 -5 -74 3 -15 12 -90 3
-100 -12 -3 -5 -10 -9 -16 -9 -6 0 -1 8 10 19 28 24 28 31 -2 31 -13 0 -30
-10 -39 -22 l-16 -23 0 28 c-1 35 35 73 54 57 10 -8 15 -8 21 1 4 7 0 17 -9
24 -20 14 -23 45 -4 45 8 0 8 3 1 8 -18 12 -24 42 -17 84 8 54 70 118 113 118
19 0 33 6 37 16 3 8 12 13 21 9 8 -3 21 3 29 15 20 28 47 25 64 -7z m109 -44
c0 -6 -4 -7 -10 -4 -5 3 -10 11 -10 16 0 6 5 7 10 4 6 -3 10 -11 10 -16z m96
-231 c-3 -13 -6 -33 -6 -45 0 -17 -6 -23 -23 -23 -32 0 -38 9 -25 34 26 51 66
76 54 34z m194 -308 c0 -5 -4 -10 -10 -10 -5 0 -10 5 -10 10 0 6 5 10 10 10 6
0 10 -4 10 -10z m-446 -649 c3 -5 -1 -11 -9 -15 -9 -3 -15 0 -15 9 0 16 16 20
24 6z"/>
<path d="M8150 3330 c8 -5 20 -10 25 -10 6 0 3 5 -5 10 -8 5 -19 10 -25 10 -5
0 -3 -5 5 -10z"/>
<path d="M8224 3306 c-8 -21 -1 -49 14 -54 8 -2 12 7 12 27 0 33 -17 51 -26
27z"/>
<path d="M8275 2770 c-3 -5 -1 -10 4 -10 6 0 11 5 11 10 0 6 -2 10 -4 10 -3 0
-8 -4 -11 -10z"/>
<path d="M7231 4344 c-40 -33 -43 -89 -8 -122 l24 -22 63 22 c64 24 119 75
105 98 -11 17 -93 50 -125 50 -16 0 -42 -11 -59 -26z"/>
<path d="M12924 3916 c-3 -8 -4 -23 -2 -33 3 -11 6 -6 9 15 6 34 2 42 -7 18z"/>
<path d="M8886 3678 c-10 -38 -7 -48 13 -48 27 0 33 14 20 44 -15 32 -25 33
-33 4z"/>
<path d="M12972 3580 c0 -14 2 -19 5 -12 2 6 2 18 0 25 -3 6 -5 1 -5 -13z"/>
<path d="M6560 3518 c0 -6 -9 -22 -21 -34 -24 -25 -9 -43 15 -18 15 14 23 64
11 64 -3 0 -5 -5 -5 -12z"/>
<path d="M835 2610 c3 -5 8 -10 11 -10 2 0 4 5 4 10 0 6 -5 10 -11 10 -5 0 -7
-4 -4 -10z"/>
<path d="M6481 2484 c0 -11 3 -14 6 -6 3 7 2 16 -1 19 -3 4 -6 -2 -5 -13z"/>
<path d="M6947 2446 c-3 -8 1 -17 9 -20 8 -3 14 1 14 9 0 20 -17 28 -23 11z"/>
<path d="M6990 2381 c0 -22 14 -41 30 -41 21 0 44 25 35 40 -8 12 -65 14 -65
1z"/>
<path d="M8673 2353 c5 -47 21 -53 24 -9 2 23 -2 36 -12 40 -13 4 -15 -2 -12
-31z"/>
<path d="M541 1486 c-7 -8 -8 -17 -3 -19 4 -3 13 3 20 14 14 22 0 26 -17 5z"/>
<path d="M7613 1443 c-21 -8 -15 -33 9 -33 12 0 30 -7 40 -17 17 -15 18 -15
18 2 0 10 -10 26 -22 36 -22 20 -25 21 -45 12z"/>
<path d="M428 1120 c-6 -37 5 -55 26 -47 10 4 19 1 22 -8 4 -8 10 -12 16 -9 5
4 5 11 -2 19 -7 9 -6 16 5 25 8 7 15 17 15 23 0 5 -9 2 -19 -7 -23 -21 -41
-14 -41 15 0 30 -17 22 -22 -11z"/>
<path d="M596 1133 c-6 -14 -5 -15 5 -6 7 7 10 15 7 18 -3 3 -9 -2 -12 -12z"/>
<path d="M655 1120 c3 -5 15 -10 26 -10 10 0 19 5 19 10 0 6 -12 10 -26 10
-14 0 -23 -4 -19 -10z"/>
<path d="M2760 1052 c0 -5 -15 -14 -34 -22 -25 -10 -36 -21 -40 -43 -11 -53
-8 -57 32 -57 32 0 39 5 53 32 20 42 42 50 33 11 -4 -15 -11 -34 -17 -41 -5
-7 -7 -15 -4 -19 10 -10 -13 -33 -33 -33 -10 0 -20 -10 -23 -21 -4 -15 -11
-20 -23 -15 -11 4 -15 2 -11 -7 3 -8 -8 -19 -25 -27 l-31 -13 26 -14 c15 -7
30 -25 33 -39 11 -44 -3 -176 -25 -229 -11 -27 -30 -83 -41 -123 -12 -40 -27
-75 -35 -78 -20 -8 -28 -53 -14 -87 11 -26 16 -28 46 -24 18 3 33 2 33 -4 0
-10 -25 -37 -56 -60 -23 -17 -104 -118 -104 -130 0 -5 61 -9 136 -9 l136 0 -7
98 c-4 53 -7 104 -7 112 4 50 21 140 31 158 6 11 11 33 11 49 0 36 27 108 59
157 14 21 32 51 40 65 8 14 36 58 62 98 l48 72 -35 30 -34 31 8 72 c10 82 7
88 -48 88 -19 0 -48 7 -64 15 -30 16 -76 20 -76 7z m83 -177 c-3 -8 -12 -15
-19 -15 -12 0 -12 4 -4 20 12 23 32 18 23 -5z m-3 -70 c0 -23 -30 -65 -46 -65
-19 0 -18 9 6 48 21 34 40 42 40 17z m-120 -550 c-7 -8 -17 -15 -22 -15 -6 0
-5 7 2 15 7 8 17 15 22 15 6 0 5 -7 -2 -15z"/>
<path d="M708 1022 c-10 -2 -18 -8 -18 -13 0 -11 11 -11 30 1 18 11 11 18 -12
12z"/>
<path d="M396 994 c-8 -20 -8 -79 0 -72 6 7 15 88 10 88 -2 0 -7 -7 -10 -16z"/>
<path d="M1015 851 c-3 -5 -1 -12 5 -16 5 -3 10 1 10 9 0 18 -6 21 -15 7z"/>
<path d="M801 839 c-1 -9 -8 -22 -16 -29 -9 -7 -12 -22 -9 -40 4 -15 1 -31 -5
-34 -18 -11 -13 -56 5 -56 12 0 15 7 11 26 -3 18 1 29 14 37 11 7 19 22 18 37
-1 31 -17 81 -18 59z"/>
<path d="M2547 788 c-33 -52 -43 -86 -29 -100 7 -7 13 0 17 26 4 20 10 36 14
36 3 0 22 14 41 31 19 17 29 28 22 24 -7 -4 -19 0 -25 9 -11 15 -16 11 -40
-26z"/>
<path d="M8115 787 c-4 -10 -5 -21 -1 -24 10 -10 18 4 13 24 -4 17 -4 17 -12
0z"/>
<path d="M969 738 c-2 -112 -4 -123 -21 -126 -12 -2 -18 3 -18 16 0 10 -9 27
-20 37 -11 10 -20 15 -20 10 0 -4 -7 -2 -15 5 -22 19 -28 7 -33 -63 -2 -34 -8
-66 -13 -72 -13 -14 -11 -45 4 -44 6 0 20 4 30 8 17 6 17 8 3 20 -16 13 -21
65 -10 95 8 20 44 21 44 2 0 -8 13 -20 29 -27 25 -11 28 -16 20 -37 -10 -25
-11 -51 -9 -206 0 -66 -3 -93 -15 -106 -8 -9 -15 -33 -15 -53 0 -20 -4 -37 -9
-37 -4 0 -6 -11 -3 -25 3 -20 -1 -27 -22 -35 -30 -11 -34 -25 -10 -34 12 -5
15 -14 10 -36 -5 -29 -4 -30 33 -30 25 0 41 5 45 15 3 8 0 15 -7 15 -7 0 -8 3
-2 8 6 4 16 19 24 35 19 35 31 18 24 -34 l-6 -39 42 0 41 0 1 83 c1 93 1 98
17 187 7 36 14 82 17 103 3 21 10 35 16 32 5 -4 10 6 10 22 5 118 4 173 -3
173 -4 0 -17 -9 -28 -20 -17 -17 -21 -18 -26 -6 -3 8 -18 18 -34 21 -22 5 -29
13 -34 41 -4 19 -4 38 -1 43 3 5 0 11 -7 13 -8 3 -12 21 -11 46 1 23 -2 42 -8
42 -5 0 -9 -19 -10 -42z m26 -179 c-10 -15 -25 -10 -19 6 4 8 10 12 15 9 5 -3
7 -10 4 -15z m65 -126 c-1 -21 -13 -52 -20 -48 -10 6 0 55 11 55 5 0 9 -3 9
-7z"/>
<path d="M1040 760 c0 -19 3 -21 12 -12 9 9 9 15 0 24 -9 9 -12 7 -12 -12z"/>
<path d="M7600 770 c0 -5 5 -10 10 -10 6 0 10 5 10 10 0 6 -4 10 -10 10 -5 0
-10 -4 -10 -10z"/>
<path d="M1825 419 c-4 -12 -2 -26 4 -32 8 -8 11 -2 11 21 0 37 -6 41 -15 11z"/>
<path d="M714 393 c-3 -10 -10 -30 -16 -45 -6 -16 -8 -37 -5 -48 3 -12 -1 -41
-10 -66 -17 -50 -12 -64 17 -46 28 17 30 16 30 -20 l1 -33 13 31 c8 18 19 35
25 38 6 4 11 16 11 26 0 10 5 22 12 26 18 12 38 -27 38 -75 0 -61 21 -41 27
26 4 37 1 52 -11 62 -9 7 -16 20 -16 28 0 8 -5 11 -11 8 -14 -9 -49 23 -49 45
0 15 -34 60 -46 60 -2 0 -7 -8 -10 -17z"/>
<path d="M807 381 c-4 -17 -3 -21 5 -13 5 5 8 16 6 23 -3 8 -7 3 -11 -10z"/>
<path d="M1760 366 c0 -8 -3 -21 -6 -30 -4 -10 -1 -16 10 -16 11 0 15 9 13 30
-2 30 -17 43 -17 16z"/>
<path d="M1820 350 c0 -5 5 -10 10 -10 6 0 10 5 10 10 0 6 -4 10 -10 10 -5 0
-10 -4 -10 -10z"/>
<path d="M1740 240 c0 -5 4 -10 9 -10 15 0 24 -40 12 -54 -8 -9 -7 -18 4 -32
18 -24 19 -45 1 -38 -9 4 -17 -10 -26 -43 -10 -36 -15 -42 -17 -25 -6 34 -20
26 -15 -8 3 -21 10 -30 22 -30 14 0 20 11 26 43 l7 42 10 -30 c7 -21 7 -30 -1
-33 -30 -10 -6 -22 43 -22 l55 0 -7 33 c-3 17 -9 34 -12 37 -4 3 -6 23 -6 45
0 37 -2 40 -25 38 -14 -2 -19 0 -10 4 20 8 30 24 30 48 -1 18 -1 19 -11 3 -14
-24 -22 -22 -36 7 -6 14 -7 25 -3 25 5 0 10 -4 12 -9 2 -5 12 -3 22 5 18 13
15 14 -32 14 -29 0 -52 -4 -52 -10z"/>
<path d="M1590 211 c0 -6 6 -11 14 -11 7 0 19 -7 26 -15 15 -18 66 -19 103 -2
36 16 34 27 -5 27 -18 0 -57 3 -85 6 -37 5 -53 3 -53 -5z"/>
<path d="M1640 141 c0 -12 9 -20 25 -23 20 -4 25 -1 25 14 0 11 -4 16 -10 13
-5 -3 -10 -1 -10 4 0 6 -7 11 -15 11 -8 0 -15 -8 -15 -19z"/>
<path d="M796 78 c-11 -49 -5 -60 19 -42 14 10 16 17 8 22 -6 4 -13 18 -15 32
-4 22 -5 20 -12 -12z"/>
<path d="M1675 80 c3 -5 8 -10 11 -10 2 0 4 5 4 10 0 6 -5 10 -11 10 -5 0 -7
-4 -4 -10z"/>
<path d="M1882 50 c0 -19 2 -27 5 -17 2 9 2 25 0 35 -3 9 -5 1 -5 -18z"/>
<path d="M735 52 c-6 -22 3 -52 16 -52 12 0 12 57 0 65 -5 3 -12 -3 -16 -13z"/>
<path d="M632 23 c5 -25 28 -28 28 -4 0 12 -6 21 -16 21 -9 0 -14 -7 -12 -17z"/>
</g>
</svg>
